<svg width="15" height="10" viewBox="0 0 15 10" fill="none" xmlns="http://www.w3.org/2000/svg">
<path d="M3 7.932C3 8.268 2.896 8.54 2.688 8.748C2.48 8.948 2.208 9.048 1.872 9.048H1.368C1.032 9.048 0.76 8.948 0.552 8.748C0.344 8.54 0.24 8.268 0.24 7.932V5.424H1.38V7.872C1.38 7.912 1.4 7.932 1.44 7.932H1.8C1.84 7.932 1.86 7.912 1.86 7.872V1.716H1.38L1.476 0.599999H3V7.932ZM6.53438 7.932C6.53438 8.268 6.43038 8.54 6.22238 8.748C6.01438 8.948 5.74238 9.048 5.40638 9.048H4.66238C4.32638 9.048 4.05438 8.948 3.84638 8.748C3.63838 8.54 3.53438 8.268 3.53438 7.932V1.716H3.35438L3.47438 0.599999H4.67438V7.872C4.67438 7.912 4.69438 7.932 4.73438 7.932H5.33438C5.37438 7.932 5.39438 7.912 5.39438 7.872V0.624H6.53438V7.932ZM10.192 7.884C10.192 8.22 10.088 8.492 9.88003 8.7C9.67203 8.9 9.40003 9 9.06403 9H7.07203V1.716H6.89203L7.01203 0.599999H9.06403C9.40003 0.599999 9.67203 0.704 9.88003 0.912C10.088 1.112 10.192 1.38 10.192 1.716V7.884ZM8.99203 1.716H8.21203V7.884H8.99203C9.03203 7.884 9.05203 7.864 9.05203 7.824V1.776C9.05203 1.736 9.03203 1.716 8.99203 1.716ZM13.2483 0.599999H14.3883V9H13.2483L11.9283 3.864V9H10.7883V1.716H10.6083L10.7283 0.599999H11.9883L13.3203 5.94L13.2483 0.599999Z" fill="white"/>
</svg>
