<svg xmlns="http://www.w3.org/2000/svg" version="1.1" xmlns:xlink="http://www.w3.org/1999/xlink" viewBox="0 0 200 200"><rect width="200" height="200" fill="url('#gradient')"></rect><defs><linearGradient id="gradient" gradientTransform="rotate(45 0.5 0.5)"><stop offset="0%" stop-color="#000000"></stop><stop offset="100%" stop-color="#000000"></stop></linearGradient></defs><g><g fill="#ffffff" transform="matrix(2.8514851485148514,0,0,2.8514851485148514,6.940065873731484,120.27831658278362)" stroke="#ffffff" stroke-width="0.1"><path d="M6.85 0L1.07 0L1.07-14.22L6.18-14.22Q8.93-14.22 10.36-13.21Q11.79-12.21 11.79-10.29L11.79-10.29Q11.79-9.19 11.28-8.41Q10.77-7.63 9.79-7.26L9.79-7.26Q10.90-6.96 11.49-6.16Q12.09-5.36 12.09-4.21L12.09-4.21Q12.09-2.12 10.77-1.07Q9.44-0.02 6.85 0L6.85 0ZM6.90-6.04L4.50-6.04L4.50-2.64L6.75-2.64Q7.68-2.64 8.17-3.06Q8.67-3.49 8.67-4.26L8.67-4.26Q8.67-6.04 6.90-6.04L6.90-6.04ZM4.50-11.57L4.50-8.29L6.29-8.29Q7.41-8.30 7.89-8.70Q8.37-9.10 8.37-9.88L8.37-9.88Q8.37-10.78 7.85-11.18Q7.33-11.57 6.18-11.57L6.18-11.57L4.50-11.57ZM17.40-14.22L17.40-2.64L23.37-2.64L23.37 0L13.97 0L13.97-14.22L17.40-14.22ZM33.91 0L33.08-2.66L28.38-2.66L27.56 0L23.90 0L29.11-14.22L32.33-14.22L37.59 0L33.91 0ZM30.72-10.23L29.20-5.30L32.26-5.30L30.72-10.23ZM50.50-14.22L50.50 0L47.09 0L42.05-8.85L42.05 0L38.62 0L38.62-14.22L42.05-14.22L47.08-5.37L47.08-14.22L50.50-14.22ZM60.76-4.81L64.17-4.81Q64.10-3.33 63.37-2.19Q62.64-1.05 61.31-0.43Q59.99 0.20 58.29 0.20L58.29 0.20Q55.49 0.20 53.88-1.63Q52.27-3.46 52.27-6.79L52.27-6.79L52.27-7.49Q52.27-9.58 52.99-11.15Q53.72-12.71 55.09-13.57Q56.46-14.42 58.25-14.42L58.25-14.42Q60.84-14.42 62.41-13.06Q63.98-11.70 64.20-9.31L64.20-9.31L60.78-9.31Q60.74-10.61 60.13-11.17Q59.51-11.74 58.25-11.74L58.25-11.74Q56.97-11.74 56.38-10.78Q55.78-9.82 55.75-7.72L55.75-7.72L55.75-6.72Q55.75-4.44 56.32-3.47Q56.89-2.49 58.29-2.49L58.29-2.49Q59.47-2.49 60.10-3.05Q60.72-3.60 60.76-4.81L60.76-4.81Z"></path></g></g></svg>